<?xml version="1.0" encoding="utf-8"?>
<!-- Generator: Adobe Illustrator 15.0.2, SVG Export Plug-In . SVG Version: 6.00 Build 0)  -->
<!DOCTYPE svg PUBLIC "-//W3C//DTD SVG 1.1//EN" "http://www.w3.org/Graphics/SVG/1.1/DTD/svg11.dtd">
<svg version="1.1" id="Layer_1" xmlns="http://www.w3.org/2000/svg" xmlns:xlink="http://www.w3.org/1999/xlink" x="0px" y="0px"
	 width="210px" height="105px" viewBox="0 0 210 105" enable-background="new 0 0 210 105" xml:space="preserve">
<g>
	<path fill="#FAF1D7" d="M80.898,66.032c-1.722,0-3.051,0.611-3.982,1.827c-0.931,1.225-1.394,2.96-1.394,5.219
		c0,2.254,0.463,4,1.394,5.224c0.931,1.23,2.261,1.839,3.982,1.839c1.722,0,3.049-0.608,3.971-1.839
		c0.925-1.224,1.388-2.97,1.388-5.224c0-2.259-0.462-3.994-1.388-5.219C83.947,66.644,82.62,66.032,80.898,66.032z"/>
	<path fill="#FAF1D7" d="M0,0v105h210V0H0z M141.468,28.144h3.145v-6.079h5.833v6.079h3.661v4.827h-3.661v11.497
		c0,0.924,0.117,1.499,0.351,1.728c0.234,0.229,0.952,0.341,2.149,0.341c0.182,0,0.369-0.003,0.568-0.01
		c0.205-0.009,0.398-0.018,0.592-0.03v4.405l-2.794,0.104c-2.782,0.096-4.685-0.386-5.708-1.449
		c-0.662-0.675-0.993-1.718-0.993-3.123V32.971h-3.145V28.144z M122.147,46.102l11.181-13.155h-10.393v-4.8h17.831v4.902
		l-11.063,12.806h11.456v4.84h-19.011V46.102z M127.811,53.229l-6.29,6.185h-4.258l3.971-6.185H127.811z M61.571,28.146h17.83v4.902
		L68.338,45.854h11.459v4.84H60.783v-4.593L71.96,32.946H61.571V28.146z M47.919,28.146h5.625v3.932
		c0.911-1.504,1.704-2.532,2.381-3.084c1.101-0.924,2.536-0.892,4.301-0.892c0.109,0,0.203,0.003,0.278,0.011
		c0.076,0.007,0.246,0.017,0.507,0.03v4.827c-0.372-0.039-0.703-0.068-0.993-0.082c-0.29-0.013-0.521-0.021-0.703-0.021
		c-2.372,0-3.965,1.493-4.779,3.036c-0.454,0.868-0.683,2.207-0.683,4.014v10.777h-5.936V28.146z M29.336,37.384l-3.069,3.111
		v10.199H20V20.203h6.267v12.562l11.78-12.562h8.232l-12.51,12.539l13.154,17.952h-8.194L29.336,37.384z M67.211,84.32h-4.223
		l-0.639-3.805c-1.229,1.44-2.331,2.46-3.309,3.046c-1.687,1.03-3.754,1.546-6.208,1.546c-4.041,0-7.35-1.399-9.927-4.199
		c-2.688-2.812-4.036-6.653-4.036-11.532c0-4.938,1.359-8.891,4.077-11.868c2.717-2.976,6.308-4.465,10.776-4.465
		c3.877,0,6.987,0.982,9.341,2.947c2.349,1.969,3.699,4.416,4.042,7.354h-6.267c-0.483-2.082-1.664-3.534-3.537-4.363
		c-1.049-0.457-2.214-0.686-3.497-0.686c-2.454,0-4.472,0.926-6.05,2.779c-1.578,1.854-2.366,4.636-2.366,8.352
		c0,3.745,0.853,6.393,2.565,7.95c1.707,1.553,3.651,2.332,5.833,2.332c2.138,0,3.889-0.612,5.253-1.84
		c1.364-1.227,2.202-2.835,2.524-4.822h-7.057v-5.087h12.703V84.32z M89.586,81.563c-1.906,2.35-4.793,3.523-8.668,3.523
		c-3.874,0-6.765-1.174-8.665-3.523c-1.903-2.352-2.858-5.18-2.858-8.485c0-3.251,0.955-6.071,2.858-8.451
		c1.9-2.385,4.791-3.579,8.665-3.579c3.875,0,6.762,1.194,8.668,3.579c1.904,2.38,2.855,5.2,2.855,8.451
		C92.442,76.384,91.49,79.212,89.586,81.563z M90.802,58.274c-0.87,1.025-2.609,1.544-5.218,1.544c-0.524,0-0.946-0.006-1.265-0.013
		c-0.316-0.005-0.791-0.028-1.429-0.072v-4.716l0.747,0.04c0.58,0.029,1.13,0.009,1.654-0.062c0.524-0.069,0.966-0.227,1.324-0.475
		c0.346-0.235,0.667-0.726,0.96-1.47c0.299-0.744,0.428-1.2,0.386-1.364l-8.287-23.541h6.56l4.919,16.632l4.656-16.632h6.267
		l-7.728,22.175C92.852,54.595,91.671,57.247,90.802,58.274z M100.647,84.32h-5.898V53.829h5.898V84.32z M109.584,84.32h-5.977
		V61.774h5.977V84.32z M109.584,59.083h-5.977v-5.439h5.977V59.083z M103.821,49.215c-1.693-1.495-2.536-3.403-2.536-5.72h5.974
		c0.129,1.049,0.398,1.793,0.814,2.234c0.732,0.786,2.091,1.179,4.073,1.179c1.163,0,2.088-0.173,2.773-0.517
		c0.686-0.346,1.031-0.861,1.031-1.552c0-0.662-0.278-1.166-0.829-1.51c-0.553-0.345-2.609-0.938-6.17-1.779
		c-2.56-0.634-4.367-1.427-5.415-2.379c-1.046-0.938-1.573-2.289-1.573-4.055c0-2.082,0.82-3.871,2.457-5.367
		c1.637-1.496,3.941-2.245,6.914-2.245c2.817,0,5.119,0.562,6.894,1.686c1.774,1.124,2.793,3.065,3.057,5.824h-5.895
		c-0.084-0.76-0.296-1.358-0.641-1.799c-0.65-0.8-1.757-1.201-3.321-1.201c-1.286,0-2.202,0.201-2.747,0.599
		c-0.548,0.401-0.82,0.87-0.82,1.407c0,0.677,0.29,1.166,0.869,1.469c0.583,0.318,2.633,0.863,6.153,1.634
		c2.354,0.552,4.111,1.387,5.283,2.504c1.16,1.132,1.739,2.545,1.739,4.24c0,2.234-0.832,4.059-2.495,5.472
		c-1.669,1.413-4.24,2.12-7.725,2.12C108.138,51.459,105.514,50.711,103.821,49.215z M132.818,84.32h-6.041V70.605
		c0-1.188-0.155-2.096-0.472-2.729c-0.574-1.16-1.669-1.739-3.286-1.739c-1.985,0-3.347,0.849-4.088,2.541
		c-0.38,0.899-0.574,2.045-0.574,3.438V84.32h-5.898V61.815h5.71v3.288c0.755-1.159,1.47-1.994,2.144-2.503
		c1.207-0.908,2.741-1.365,4.594-1.365c2.323,0,4.22,0.609,5.696,1.83c1.476,1.222,2.214,3.245,2.214,6.07V84.32z M152.985,82.967
		c-1.666,1.411-4.237,2.12-7.722,2.12c-3.549,0-6.172-0.747-7.865-2.246c-1.692-1.496-2.539-3.402-2.539-5.716h5.977
		c0.129,1.045,0.398,1.792,0.814,2.231c0.732,0.784,2.091,1.177,4.074,1.177c1.162,0,2.087-0.17,2.773-0.516
		c0.685-0.346,1.028-0.86,1.028-1.552c0-0.662-0.276-1.163-0.829-1.508c-0.55-0.349-2.606-0.94-6.167-1.78
		c-2.559-0.636-4.366-1.427-5.412-2.378c-1.051-0.94-1.575-2.287-1.575-4.057c0-2.078,0.82-3.871,2.457-5.367
		c1.637-1.496,3.942-2.243,6.914-2.243c2.82,0,5.116,0.562,6.893,1.684c1.775,1.125,2.794,3.063,3.058,5.825h-5.895
		c-0.085-0.759-0.299-1.359-0.642-1.801c-0.653-0.797-1.76-1.198-3.321-1.198c-1.288,0-2.202,0.202-2.747,0.601
		c-0.547,0.397-0.82,0.867-0.82,1.402c0,0.677,0.29,1.169,0.867,1.473c0.586,0.316,2.635,0.861,6.158,1.635
		c2.349,0.55,4.109,1.382,5.28,2.5c1.159,1.131,1.739,2.548,1.739,4.241C155.483,79.73,154.652,81.553,152.985,82.967z
		 M156.907,47.937c-1.901-2.351-2.853-5.179-2.853-8.485c0-3.252,0.952-6.07,2.853-8.452c1.906-2.386,4.793-3.576,8.667-3.576
		c3.877,0,6.768,1.19,8.668,3.576c1.903,2.382,2.858,5.2,2.858,8.452c0,3.307-0.955,6.135-2.858,8.485
		c-1.9,2.349-4.791,3.522-8.668,3.522C161.7,51.459,158.813,50.285,156.907,47.937z M171.431,84.32l-5.464-9.632l-2.442,2.536v7.096
		h-5.792V53.934h5.792v16.45l7.435-8.507h7.33l-8.083,8.398l8.396,14.045H171.431z M186.223,84.32h-5.977V61.774h5.977V84.32z
		 M186.223,59.083h-5.977v-5.439h5.977V59.083z M190,32.9h-3.869v17.794h-5.856V32.9h-3.309v-4.827h3.227v-1.167
		c0-2.415,0.407-4.076,1.224-4.987c0.855-1.35,2.917-2.026,6.185-2.026c0.372,0,0.708,0.009,1.013,0.031
		c0.305,0.02,0.715,0.051,1.239,0.094v4.798c-0.331-0.041-0.887-0.072-1.664-0.093c-0.778-0.021-1.317,0.153-1.613,0.518
		c-0.296,0.366-0.445,0.769-0.445,1.209v1.624H190V32.9z"/>
	<path fill="#FAF1D7" d="M169.528,44.677c0.923-1.226,1.388-2.967,1.388-5.226c0-2.258-0.465-3.997-1.388-5.215
		c-0.925-1.219-2.249-1.829-3.971-1.829c-1.725,0-3.051,0.61-3.983,1.829c-0.931,1.218-1.397,2.957-1.397,5.215
		c0,2.259,0.466,4,1.397,5.226c0.932,1.228,2.258,1.839,3.983,1.839C167.279,46.516,168.603,45.904,169.528,44.677z"/>
</g>
</svg>
