<?xml version="1.0" encoding="utf-8"?>
<!-- Generator: Adobe Illustrator 15.0.2, SVG Export Plug-In . SVG Version: 6.00 Build 0)  -->
<!DOCTYPE svg PUBLIC "-//W3C//DTD SVG 1.1//EN" "http://www.w3.org/Graphics/SVG/1.1/DTD/svg11.dtd">
<svg version="1.1" id="Layer_1" xmlns="http://www.w3.org/2000/svg" xmlns:xlink="http://www.w3.org/1999/xlink" x="0px" y="0px"
	 width="210px" height="105px" viewBox="0 0 210 105" enable-background="new 0 0 210 105" xml:space="preserve">
<path fill="none" stroke="#939598" stroke-width="0.25" stroke-miterlimit="10" d="M89.586,64.627
	c-1.906-2.385-4.793-3.579-8.668-3.579c-3.874,0-6.765,1.194-8.665,3.579c-1.903,2.38-2.858,5.2-2.858,8.451
	c0,3.305,0.955,6.133,2.858,8.484c1.9,2.35,4.791,3.523,8.665,3.523c3.875,0,6.762-1.173,8.668-3.523
	c1.904-2.351,2.856-5.178,2.855-8.484C92.441,69.827,91.49,67.007,89.586,64.627z M84.869,78.303
	c-0.922,1.23-2.249,1.838-3.971,1.838c-1.721,0-3.051-0.609-3.982-1.838c-0.931-1.225-1.394-2.971-1.394-5.225
	c0-2.26,0.463-3.994,1.394-5.219c0.931-1.217,2.26-1.828,3.982-1.828c1.722,0,3.049,0.613,3.971,1.828
	c0.926,1.225,1.388,2.959,1.388,5.219C86.257,75.332,85.794,77.078,84.869,78.303z"/>
<path fill="none" stroke="#939598" stroke-width="0.25" stroke-miterlimit="10" d="M141.469,28.144h3.145v-6.079h5.832v6.079h3.662
	v4.827h-3.662v11.497c0,0.924,0.117,1.499,0.352,1.728c0.234,0.229,0.952,0.341,2.148,0.341c0.183,0,0.369-0.003,0.568-0.01
	c0.205-0.009,0.398-0.018,0.592-0.03v4.405l-2.793,0.104c-2.783,0.096-4.686-0.386-5.709-1.449
	c-0.662-0.675-0.992-1.718-0.992-3.123V32.971h-3.145v-4.827H141.469z"/>
<polygon fill="none" stroke="#939598" stroke-width="0.25" stroke-miterlimit="10" points="122.146,46.102 133.328,32.947 
	122.936,32.947 122.936,28.147 140.766,28.147 140.766,33.049 129.703,45.855 141.158,45.855 141.158,50.695 122.148,50.695 
	122.148,46.102 "/>
<polygon fill="none" stroke="#939598" stroke-width="0.25" stroke-miterlimit="10" points="127.811,53.229 121.521,59.414 
	117.264,59.414 121.234,53.229 "/>
<polygon fill="none" stroke="#939598" stroke-width="0.25" stroke-miterlimit="10" points="61.571,28.146 79.401,28.146 
	79.401,33.048 68.338,45.854 79.797,45.854 79.797,50.694 60.783,50.694 60.783,46.101 71.96,32.946 61.571,32.946 "/>
<path fill="none" stroke="#939598" stroke-width="0.25" stroke-miterlimit="10" d="M47.919,28.146h5.625v3.932
	c0.911-1.504,1.704-2.532,2.381-3.084c1.101-0.924,2.536-0.892,4.301-0.892c0.109,0,0.203,0.003,0.278,0.011
	c0.076,0.007,0.246,0.017,0.507,0.03v4.827c-0.372-0.039-0.703-0.068-0.993-0.082c-0.29-0.013-0.521-0.021-0.703-0.021
	c-2.372,0-3.965,1.493-4.779,3.036c-0.454,0.868-0.683,2.207-0.683,4.014v10.777h-5.936V28.146H47.919z"/>
<polygon fill="none" stroke="#939598" stroke-width="0.25" stroke-miterlimit="10" points="29.336,37.384 26.267,40.495 
	26.267,50.694 20,50.694 20,20.203 26.267,20.203 26.267,32.765 38.047,20.203 46.279,20.203 33.769,32.742 46.923,50.694 
	38.729,50.694 "/>
<path fill="none" stroke="#939598" stroke-width="0.25" stroke-miterlimit="10" d="M67.211,84.32h-4.223l-0.639-3.805
	c-1.229,1.439-2.331,2.459-3.309,3.045c-1.687,1.03-3.754,1.547-6.208,1.547c-4.041,0-7.35-1.399-9.927-4.199
	c-2.688-2.812-4.036-6.653-4.036-11.532c0-4.938,1.359-8.892,4.077-11.868c2.717-2.977,6.308-4.465,10.776-4.465
	c3.877,0,6.987,0.982,9.341,2.947c2.349,1.969,3.699,4.416,4.042,7.354h-6.267c-0.483-2.082-1.664-3.533-3.537-4.363
	c-1.049-0.457-2.214-0.686-3.497-0.686c-2.454,0-4.472,0.926-6.05,2.779c-1.578,1.854-2.366,4.636-2.366,8.352
	c0,3.745,0.853,6.393,2.565,7.95c1.707,1.554,3.651,2.332,5.833,2.332c2.138,0,3.889-0.612,5.253-1.84s2.202-2.835,2.524-4.822
	h-7.057v-5.087h12.703V84.32H67.211z"/>
<path fill="none" stroke="#939598" stroke-width="0.25" stroke-miterlimit="10" d="M90.802,58.273
	c-0.87,1.025-2.609,1.545-5.218,1.545c-0.524,0-0.946-0.006-1.265-0.014c-0.316-0.004-0.791-0.027-1.429-0.072v-4.715l0.747,0.039
	c0.58,0.029,1.13,0.01,1.654-0.062c0.524-0.069,0.966-0.228,1.324-0.476c0.346-0.234,0.667-0.726,0.96-1.469
	c0.299-0.745,0.428-1.201,0.386-1.365l-8.287-23.541h6.56l4.919,16.632l4.656-16.632h6.267L94.348,50.32
	C92.852,54.596,91.671,57.247,90.802,58.273z"/>
<rect x="94.749" y="53.829" fill="none" stroke="#939598" stroke-width="0.25" stroke-miterlimit="10" width="5.898" height="30.491"/>
<rect x="103.607" y="61.773" fill="none" stroke="#939598" stroke-width="0.25" stroke-miterlimit="10" width="5.977" height="22.547"/>
<rect x="103.607" y="53.645" fill="none" stroke="#939598" stroke-width="0.25" stroke-miterlimit="10" width="5.977" height="5.438"/>
<path fill="none" stroke="#939598" stroke-width="0.25" stroke-miterlimit="10" d="M103.821,49.215
	c-1.693-1.495-2.536-3.403-2.536-5.72h5.975c0.129,1.049,0.396,1.793,0.812,2.234c0.732,0.786,2.092,1.179,4.074,1.179
	c1.162,0,2.088-0.173,2.772-0.517c0.687-0.346,1.03-0.861,1.03-1.552c0-0.662-0.277-1.166-0.828-1.51
	c-0.553-0.345-2.609-0.938-6.17-1.779c-2.561-0.634-4.367-1.427-5.415-2.379c-1.046-0.938-1.573-2.289-1.573-4.055
	c0-2.082,0.82-3.871,2.457-5.367c1.637-1.496,3.941-2.245,6.914-2.245c2.816,0,5.119,0.562,6.895,1.686
	c1.773,1.124,2.793,3.065,3.057,5.824h-5.895c-0.084-0.76-0.297-1.358-0.642-1.799c-0.649-0.8-1.757-1.201-3.321-1.201
	c-1.285,0-2.201,0.201-2.746,0.599c-0.549,0.401-0.82,0.87-0.82,1.407c0,0.677,0.289,1.166,0.869,1.469
	c0.582,0.318,2.633,0.863,6.152,1.634c2.354,0.552,4.111,1.387,5.283,2.504c1.16,1.132,1.738,2.545,1.738,4.24
	c0,2.234-0.832,4.059-2.494,5.472c-1.67,1.413-4.24,2.12-7.725,2.12C108.139,51.459,105.514,50.711,103.821,49.215z"/>
<path fill="none" stroke="#939598" stroke-width="0.25" stroke-miterlimit="10" d="M132.818,84.32h-6.041V70.605
	c0-1.188-0.155-2.096-0.473-2.729c-0.574-1.159-1.668-1.739-3.285-1.739c-1.986,0-3.348,0.85-4.088,2.541
	c-0.381,0.899-0.574,2.045-0.574,3.438V84.32h-5.898V61.814h5.71v3.289c0.755-1.16,1.47-1.994,2.144-2.504
	c1.207-0.908,2.742-1.365,4.594-1.365c2.324,0,4.221,0.609,5.697,1.83c1.476,1.223,2.213,3.246,2.213,6.07V84.32H132.818z"/>
<path fill="none" stroke="#939598" stroke-width="0.25" stroke-miterlimit="10" d="M152.984,82.967
	c-1.666,1.411-4.236,2.12-7.721,2.12c-3.55,0-6.172-0.747-7.865-2.245c-1.692-1.496-2.539-3.402-2.539-5.717h5.977
	c0.129,1.045,0.398,1.792,0.814,2.23c0.731,0.785,2.09,1.178,4.074,1.178c1.162,0,2.086-0.17,2.772-0.516
	c0.685-0.347,1.028-0.861,1.028-1.553c0-0.662-0.276-1.162-0.83-1.508c-0.549-0.35-2.605-0.939-6.166-1.779
	c-2.559-0.637-4.366-1.428-5.412-2.379c-1.051-0.939-1.575-2.287-1.575-4.057c0-2.078,0.819-3.871,2.457-5.367
	s3.942-2.243,6.914-2.243c2.819,0,5.116,0.562,6.894,1.685c1.774,1.125,2.793,3.062,3.057,5.824h-5.895
	c-0.084-0.759-0.299-1.359-0.642-1.801c-0.653-0.797-1.761-1.197-3.321-1.197c-1.287,0-2.201,0.201-2.746,0.601
	c-0.548,0.397-0.82,0.866-0.82,1.401c0,0.678,0.289,1.17,0.867,1.474c0.586,0.315,2.635,0.86,6.157,1.635
	c2.349,0.55,4.108,1.382,5.28,2.5c1.158,1.132,1.738,2.548,1.738,4.241C155.482,79.73,154.652,81.553,152.984,82.967z"/>
<polygon fill="none" stroke="#939598" stroke-width="0.25" stroke-miterlimit="10" points="171.432,84.32 165.967,74.688 
	163.525,77.225 163.525,84.32 157.732,84.32 157.732,53.934 163.525,53.934 163.525,70.385 170.96,61.877 178.29,61.877 
	170.207,70.275 178.604,84.32 "/>
<rect x="180.246" y="61.773" fill="none" stroke="#939598" stroke-width="0.25" stroke-miterlimit="10" width="5.977" height="22.547"/>
<rect x="180.246" y="53.645" fill="none" stroke="#939598" stroke-width="0.25" stroke-miterlimit="10" width="5.977" height="5.438"/>
<path fill="none" stroke="#939598" stroke-width="0.25" stroke-miterlimit="10" d="M190,32.9h-3.869v17.794h-5.855V32.9h-3.31
	v-4.827h3.228v-1.167c0-2.415,0.406-4.076,1.224-4.987c0.854-1.35,2.917-2.026,6.185-2.026c0.373,0,0.709,0.009,1.014,0.031
	c0.305,0.02,0.715,0.051,1.238,0.094v4.798c-0.33-0.041-0.887-0.072-1.664-0.093s-1.316,0.153-1.612,0.518
	c-0.296,0.366-0.445,0.77-0.445,1.209v1.624H190V32.9z"/>
<path fill="none" stroke="#939598" stroke-width="0.25" stroke-miterlimit="10" d="M174.242,31c-1.9-2.386-4.791-3.576-8.668-3.576
	c-3.875,0-6.762,1.19-8.668,3.576c-1.9,2.382-2.852,5.2-2.852,8.452c0,3.306,0.951,6.134,2.852,8.485
	c1.906,2.348,4.793,3.522,8.668,3.522c3.877,0,6.768-1.173,8.668-3.522c1.902-2.35,2.857-5.178,2.857-8.485
	C177.1,36.2,176.145,33.382,174.242,31z M169.527,44.677c-0.924,1.227-2.248,1.839-3.971,1.839c-1.725,0-3.051-0.611-3.982-1.839
	c-0.932-1.226-1.396-2.967-1.396-5.226c0-2.258,0.465-3.997,1.396-5.215c0.932-1.219,2.258-1.829,3.982-1.829
	c1.723,0,3.047,0.61,3.971,1.829c0.924,1.218,1.389,2.957,1.389,5.215C170.916,41.71,170.451,43.451,169.527,44.677z"/>
</svg>
